<svg xmlns="http://www.w3.org/2000/svg" width="569.768" height="93.901" viewBox="0 0 569.768 93.901"><g transform="translate(0.214 -0.462)"><path d="M141.231,52.026a12.661,12.661,0,0,0-10.3-12.438,46.256,46.256,0,0,0-58.1-35.846,9.281,9.281,0,0,0-14.157,0A46.564,46.564,0,0,0,33.91,3.562a8.372,8.372,0,0,0-14.573,6.858,46.2,46.2,0,0,0,44.617,80.3c.609-.248,1.209-.528,1.8-.807q.892.419,1.8.807a46.237,46.237,0,0,0,60.538-24.577q.307-.728.589-1.459a12.659,12.659,0,0,0,12.547-12.659ZM85.536,7.939A40.211,40.211,0,0,1,124.916,39.9a12.666,12.666,0,0,0-7.5,18.1,55.126,55.126,0,0,1-8.622,5.038,54.4,54.4,0,0,1-21.164,5.107q.476-.991.906-2.006A46.15,46.15,0,0,0,78.628,15.5a46.72,46.72,0,0,0-3.884-3.467,9.263,9.263,0,0,0,.285-2.286c0-.141,0-.28,0-.419A40.223,40.223,0,0,1,85.536,7.939ZM65.756,83.2A40.4,40.4,0,0,1,48.745,64.444a14.116,14.116,0,0,0,1.967-1.214,60.681,60.681,0,0,0,11.111,6.135,60.28,60.28,0,0,0,15.326,4.211q-1.285,1.573-2.724,3.022a40.178,40.178,0,0,1-8.669,6.6Zm-1.61-19.319a54.786,54.786,0,0,1-9.459-5.147,14.152,14.152,0,0,0-8.173-20.4,40.107,40.107,0,0,1,10.571-18.6q1.417-1.412,2.942-2.67a9.281,9.281,0,0,0,11.438,0q1.526,1.256,2.94,2.67a40.2,40.2,0,0,1,6.559,48.282,54.47,54.47,0,0,1-16.817-4.136ZM56.485,9.323v.419a9.263,9.263,0,0,0,.285,2.286A46.723,46.723,0,0,0,52.887,15.5,46.088,46.088,0,0,0,40.523,37.8a14.023,14.023,0,0,0-3.646.978q-1.07-2.036-1.969-4.166A54.412,54.412,0,0,1,30.7,16.823,8.379,8.379,0,0,0,35.97,9.185a40.585,40.585,0,0,1,20.518.131ZM45.974,88.385a40.24,40.24,0,0,1-23.6-72.8,8.327,8.327,0,0,0,2.355,1.33,60.372,60.372,0,0,0,4.679,20.027q1.149,2.724,2.544,5.293A14.142,14.142,0,0,0,42.331,65.982c.193,0,.386,0,.577-.012l.072.176a46.425,46.425,0,0,0,16.265,20A39.98,39.98,0,0,1,45.974,88.385Zm68.005-11.78a40.287,40.287,0,0,1-41.712,9.541A46.59,46.59,0,0,0,84.176,74.138c.453,0,.907.017,1.362.017a60.414,60.414,0,0,0,25.778-5.7,61.119,61.119,0,0,0,10.1-5.976,12.558,12.558,0,0,0,1.394.832c-.069.173-.141.344-.213.515A40.094,40.094,0,0,1,113.979,76.605Z" transform="translate(0 0)" fill="#fff"/><path d="M677,119.118a8.144,8.144,0,0,0-3-2.279,9.969,9.969,0,0,0-4.1-.8,10.286,10.286,0,0,0-7.767,3.42,11.7,11.7,0,0,0-2.279,3.842,14.645,14.645,0,0,0,0,9.677A12.057,12.057,0,0,0,662.1,136.8a10.191,10.191,0,0,0,3.368,2.519,9.721,9.721,0,0,0,4.161.9,9.322,9.322,0,0,0,4.508-1.06,8.961,8.961,0,0,0,3.22-2.972l6.9,5.144a14.35,14.35,0,0,1-6.043,4.934,18.71,18.71,0,0,1-7.529,1.59,23.131,23.131,0,0,1-8.112-1.38,18.539,18.539,0,0,1-6.415-3.963,17.9,17.9,0,0,1-4.211-6.229,22.864,22.864,0,0,1,0-16.347,17.9,17.9,0,0,1,4.211-6.229,18.576,18.576,0,0,1,6.415-3.963,23.131,23.131,0,0,1,8.112-1.38,20.006,20.006,0,0,1,3.314.292,18,18,0,0,1,3.393.926,15.236,15.236,0,0,1,3.22,1.7,12.827,12.827,0,0,1,2.757,2.6Z" transform="translate(-489.502 -81.178)" fill="#fff"/><path d="M805.19,112.389h14.526a25.6,25.6,0,0,1,5.434.557,12.942,12.942,0,0,1,4.508,1.855,9.258,9.258,0,0,1,3.074,3.5,11.853,11.853,0,0,1,1.142,5.489,11.015,11.015,0,0,1-2.068,6.759,9.359,9.359,0,0,1-6.043,3.539l9.543,15.851H825.4l-7.849-15H813.46v15h-8.27Zm8.27,15.537h4.879q1.114,0,2.358-.082a7.371,7.371,0,0,0,2.254-.476,3.9,3.9,0,0,0,1.669-1.238,3.811,3.811,0,0,0,.664-2.388,3.955,3.955,0,0,0-.584-2.279,3.894,3.894,0,0,0-1.486-1.3,6.562,6.562,0,0,0-2.068-.612,16.788,16.788,0,0,0-2.279-.158H813.46Z" transform="translate(-605.923 -84.205)" fill="#fff"/><path d="M937.393,133.916l-14.1-21.526h10.286l7.953,14.051,8.421-14.051h9.808l-14.1,21.526v16.025h-8.263Z" transform="translate(-694.772 -84.206)" fill="#fff"/><path d="M1085.69,112.389h13.947a27.515,27.515,0,0,1,5.516.533,12.542,12.542,0,0,1,4.533,1.828,9.259,9.259,0,0,1,3.078,3.5,12,12,0,0,1,1.142,5.541,12.75,12.75,0,0,1-1.062,5.513,9.04,9.04,0,0,1-2.922,3.547,11.831,11.831,0,0,1-4.4,1.88,25.758,25.758,0,0,1-5.513.557h-6.044V149.94h-8.272Zm8.272,15.906h5.513a10.668,10.668,0,0,0,2.148-.211,5.744,5.744,0,0,0,1.855-.716,3.81,3.81,0,0,0,1.325-1.38,4.335,4.335,0,0,0,.5-2.2,3.715,3.715,0,0,0-.664-2.306,4.371,4.371,0,0,0-1.7-1.352,7.169,7.169,0,0,0-2.306-.609,23.337,23.337,0,0,0-2.44-.134h-4.241Z" transform="translate(-816.949 -84.205)" fill="#fff"/><path d="M1223.35,119.709h-10.71V112.39h29.689v7.319h-10.71v30.232h-8.27Z" transform="translate(-912.456 -84.206)" fill="#fff"/><path d="M1341.283,128.2a21.193,21.193,0,0,1,1.511-8.173,17.9,17.9,0,0,1,4.211-6.229,18.552,18.552,0,0,1,6.415-3.963,24.537,24.537,0,0,1,16.223,0,18.556,18.556,0,0,1,6.415,3.963,17.872,17.872,0,0,1,4.211,6.229,22.863,22.863,0,0,1,0,16.347,17.872,17.872,0,0,1-4.211,6.229,18.519,18.519,0,0,1-6.415,3.963,24.537,24.537,0,0,1-16.223,0A18.517,18.517,0,0,1,1347,142.6a17.9,17.9,0,0,1-4.211-6.229,21.2,21.2,0,0,1-1.511-8.173Zm8.589,0a13.773,13.773,0,0,0,.82,4.852,11.141,11.141,0,0,0,2.36,3.817,10.731,10.731,0,0,0,3.685,2.519,13.216,13.216,0,0,0,9.6,0,10.729,10.729,0,0,0,3.685-2.519,11.139,11.139,0,0,0,2.36-3.817,14.689,14.689,0,0,0,0-9.677,11.074,11.074,0,0,0-2.36-3.841,10.726,10.726,0,0,0-3.685-2.521,13.216,13.216,0,0,0-9.6,0,10.727,10.727,0,0,0-3.685,2.519,11.084,11.084,0,0,0-2.36,3.842,13.858,13.858,0,0,0-.812,4.827Z" transform="translate(-1009.236 -81.242)" fill="#fff"/><path d="M1537.627,118.7a5.886,5.886,0,0,0-2.725-1.882,9.8,9.8,0,0,0-3.262-.609,8.715,8.715,0,0,0-1.855.211,7.123,7.123,0,0,0-1.8.664,3.9,3.9,0,0,0-1.377,1.194,3.3,3.3,0,0,0,.74,4.4,11.993,11.993,0,0,0,3.22,1.538q1.932.634,4.161,1.273a17.138,17.138,0,0,1,4.161,1.8,9.841,9.841,0,0,1,3.22,3.128,9.53,9.53,0,0,1,1.273,5.248,11.99,11.99,0,0,1-1.167,5.449,11.056,11.056,0,0,1-3.153,3.869,13.4,13.4,0,0,1-4.614,2.281,20.335,20.335,0,0,1-5.54.743,20.088,20.088,0,0,1-6.787-1.115,17.017,17.017,0,0,1-5.83-3.6l5.885-6.469a8.55,8.55,0,0,0,3.22,2.623,9.018,9.018,0,0,0,6.043.691,6.659,6.659,0,0,0,1.855-.716,4.023,4.023,0,0,0,1.325-1.219,3.039,3.039,0,0,0,.5-1.751,3.173,3.173,0,0,0-1.3-2.677,12.018,12.018,0,0,0-3.259-1.672q-1.962-.689-4.243-1.377a18.959,18.959,0,0,1-4.24-1.855,10.233,10.233,0,0,1-3.262-3.076,8.771,8.771,0,0,1-1.3-5.035,11.277,11.277,0,0,1,1.192-5.3,11.547,11.547,0,0,1,3.153-3.794,13.872,13.872,0,0,1,4.587-2.308,18.825,18.825,0,0,1,5.355-.768,21.12,21.12,0,0,1,6.15.9,14.247,14.247,0,0,1,5.355,3.022Z" transform="translate(-1140.899 -81.339)" fill="#fff"/><path d="M1650.39,112.389h13.944a27.492,27.492,0,0,1,5.513.533,12.539,12.539,0,0,1,4.532,1.828,9.265,9.265,0,0,1,3.076,3.5,11.943,11.943,0,0,1,1.139,5.541,12.771,12.771,0,0,1-1.06,5.513,9.08,9.08,0,0,1-2.915,3.547,11.831,11.831,0,0,1-4.4,1.88,25.756,25.756,0,0,1-5.513.557h-6.046V149.94h-8.27Zm8.27,15.906h5.516a10.7,10.7,0,0,0,2.148-.211,5.738,5.738,0,0,0,1.855-.716,3.829,3.829,0,0,0,1.325-1.38,4.342,4.342,0,0,0,.5-2.2,3.705,3.705,0,0,0-.661-2.306,4.4,4.4,0,0,0-1.7-1.352,7.2,7.2,0,0,0-2.306-.609,23.378,23.378,0,0,0-2.44-.134h-4.243Z" transform="translate(-1241.785 -84.205)" fill="#fff"/><path d="M1785.25,112.39h8.27v14h16.067v-14h8.27v37.551h-8.27V133.718H1793.52v16.223h-8.27Z" transform="translate(-1343.243 -84.206)" fill="#fff"/><path d="M1944.29,112.39h8.272v37.551h-8.272Z" transform="translate(-1462.892 -84.206)" fill="#fff"/><path d="M2008.08,112.389h14.529a25.622,25.622,0,0,1,5.435.557,12.962,12.962,0,0,1,4.507,1.855,9.278,9.278,0,0,1,3.074,3.5,11.829,11.829,0,0,1,1.139,5.489,11.024,11.024,0,0,1-2.065,6.759,9.352,9.352,0,0,1-6.046,3.539l9.543,15.851h-9.908l-7.843-15.017h-4.082V149.94h-8.273Zm8.272,15.537h4.877c.743,0,1.528-.027,2.361-.082a7.387,7.387,0,0,0,2.254-.476,3.927,3.927,0,0,0,1.669-1.238,3.8,3.8,0,0,0,.661-2.388,3.968,3.968,0,0,0-.582-2.279,3.893,3.893,0,0,0-1.486-1.3,6.583,6.583,0,0,0-2.068-.612,16.8,16.8,0,0,0-2.281-.158h-5.407Z" transform="translate(-1510.883 -84.205)" fill="#fff"/><path d="M2157.4,112.39h6.842l16.33,37.551h-9.333l-3.232-7.953h-14.582l-3.125,7.953h-9.12Zm3.183,10.923-4.56,11.663h9.164Z" transform="translate(-1611.017 -84.206)" fill="#fff"/></g></svg>