<svg xmlns="http://www.w3.org/2000/svg" xmlns:xlink="http://www.w3.org/1999/xlink" width="575.823" height="94.901" viewBox="0 0 575.823 94.901"><defs><linearGradient id="a" x1="-0.092" y1="0.797" x2="0.923" y2="0.217" gradientUnits="objectBoundingBox"><stop offset="0.03" stop-color="#00d7a7"/><stop offset="0.12" stop-color="#00cfa7"/><stop offset="0.27" stop-color="#00b7a9"/><stop offset="0.46" stop-color="#0092ab"/><stop offset="0.67" stop-color="#005ead"/><stop offset="0.91" stop-color="#001cb1"/><stop offset="1" stop-color="#0000b2"/></linearGradient></defs><g transform="translate(0.449 -0.421)"><path d="M142.505,52.532A12.8,12.8,0,0,0,132.1,39.962,46.739,46.739,0,0,0,73.38,3.736a9.375,9.375,0,0,0-14.307,0,47.049,47.049,0,0,0-25.026-.183,8.461,8.461,0,0,0-14.738,6.932,46.691,46.691,0,0,0,45.1,81.152c.613-.25,1.219-.533,1.819-.816.6.283,1.209.558,1.822.816A46.731,46.731,0,0,0,129.229,66.8c.205-.5.4-.981.593-1.474A12.793,12.793,0,0,0,142.505,52.532ZM86.219,7.986a40.638,40.638,0,0,1,39.792,32.3,12.8,12.8,0,0,0-7.58,18.294,55.725,55.725,0,0,1-8.714,5.09,54.955,54.955,0,0,1-21.39,5.163q.48-1,.916-2.03A46.734,46.734,0,0,0,75.317,12.113,9.394,9.394,0,0,0,75.605,9.8V9.377a40.663,40.663,0,0,1,10.614-1.4ZM66.233,84.035a40.87,40.87,0,0,1-17.19-18.95,14.288,14.288,0,0,0,1.987-1.229,61.262,61.262,0,0,0,11.229,6.2,60.927,60.927,0,0,0,15.489,4.254q-1.3,1.589-2.753,3.053a40.543,40.543,0,0,1-8.762,6.67Zm-1.627-19.52a55.472,55.472,0,0,1-9.56-5.2A14.3,14.3,0,0,0,46.788,38.7a40.525,40.525,0,0,1,10.686-18.81,39.715,39.715,0,0,1,2.973-2.7,9.377,9.377,0,0,0,11.557,0q1.547,1.269,2.973,2.7a40.615,40.615,0,0,1,6.629,48.8A54.98,54.98,0,0,1,64.6,64.5ZM56.858,9.377V9.8a9.511,9.511,0,0,0,.285,2.313,47.531,47.531,0,0,0-3.924,3.5A46.651,46.651,0,0,0,40.706,38.165a14.2,14.2,0,0,0-3.684.989q-1.079-2.052-1.99-4.209a55,55,0,0,1-4.254-17.981,8.464,8.464,0,0,0,5.328-7.718,41.025,41.025,0,0,1,20.737.133Zm-10.624,79.9a40.664,40.664,0,0,1-23.857-73.57,8.442,8.442,0,0,0,2.38,1.341,61.031,61.031,0,0,0,4.73,20.244q1.161,2.753,2.57,5.346a14.292,14.292,0,0,0,10.5,24c.2,0,.388,0,.581-.015l.075.178A46.911,46.911,0,0,0,59.646,87.014a40.41,40.41,0,0,1-13.412,2.265Zm68.727-11.9a40.718,40.718,0,0,1-42.154,9.643A47.2,47.2,0,0,0,84.842,74.893c.458,0,.916.018,1.376.018a61.064,61.064,0,0,0,26.062-5.774A61.6,61.6,0,0,0,122.489,63.1a12.489,12.489,0,0,0,1.411.841c-.07.175-.143.348-.215.523A40.52,40.52,0,0,1,114.961,77.373Z" transform="translate(0)" fill="url(#a)"/><path d="M677.181,119.3a8.2,8.2,0,0,0-3.025-2.3,10.094,10.094,0,0,0-4.155-.8,10.384,10.384,0,0,0-7.848,3.456,11.809,11.809,0,0,0-2.3,3.884,14.8,14.8,0,0,0,0,9.778,12.173,12.173,0,0,0,2.277,3.859,10.3,10.3,0,0,0,3.4,2.545,9.832,9.832,0,0,0,4.212.914,9.414,9.414,0,0,0,4.555-1.071,9.089,9.089,0,0,0,3.268-3l6.965,5.2a14.514,14.514,0,0,1-6.106,4.985,18.918,18.918,0,0,1-7.61,1.607,23.363,23.363,0,0,1-8.2-1.394,18.718,18.718,0,0,1-6.484-3.992,18.1,18.1,0,0,1-4.255-6.3,23.107,23.107,0,0,1,0-16.517,18.118,18.118,0,0,1,4.255-6.3,18.793,18.793,0,0,1,6.484-3.992,23.361,23.361,0,0,1,8.2-1.391,20.2,20.2,0,0,1,3.351.293,18.3,18.3,0,0,1,3.429.938,15.34,15.34,0,0,1,3.241,1.714,12.965,12.965,0,0,1,2.788,2.625Z" transform="translate(-487.922 -81.005)" fill="#0000b2"/><path d="M805.12,112.379H819.8a25.861,25.861,0,0,1,5.491.563,13.076,13.076,0,0,1,4.555,1.874,9.362,9.362,0,0,1,3.108,3.536,12,12,0,0,1,1.151,5.546,11.129,11.129,0,0,1-2.09,6.832,9.47,9.47,0,0,1-6.106,3.576l9.642,16.017h-10.01L817.6,135.153h-4.124v15.171H805.12Zm8.359,15.7h4.93c.751,0,1.544-.025,2.385-.08a7.394,7.394,0,0,0,2.278-.483,3.919,3.919,0,0,0,1.686-1.251,3.844,3.844,0,0,0,.671-2.41,4.011,4.011,0,0,0-.59-2.3,3.938,3.938,0,0,0-1.5-1.311,6.564,6.564,0,0,0-2.09-.616,16.986,16.986,0,0,0-2.305-.163h-5.463Z" transform="translate(-603.966 -83.939)" fill="#0000b2"/><path d="M937.465,134.135,923.2,112.38h10.393l8.038,14.2,8.509-14.2h9.913L945.8,134.135v16.189h-8.336Z" transform="translate(-692.495 -83.94)" fill="#0000b2"/><path d="M1085.68,112.379h14.095a27.989,27.989,0,0,1,5.573.536,12.675,12.675,0,0,1,4.579,1.849,9.363,9.363,0,0,1,3.111,3.526,12.084,12.084,0,0,1,1.153,5.6,12.894,12.894,0,0,1-1.074,5.573,9.15,9.15,0,0,1-2.95,3.594,11.956,11.956,0,0,1-4.447,1.9,26.227,26.227,0,0,1-5.573.561h-6.109v14.805h-8.359Zm8.359,16.074h5.573a10.783,10.783,0,0,0,2.17-.213,5.751,5.751,0,0,0,1.874-.726,3.845,3.845,0,0,0,1.342-1.391,4.43,4.43,0,0,0,.5-2.225,3.735,3.735,0,0,0-.67-2.33,4.421,4.421,0,0,0-1.715-1.366,7.238,7.238,0,0,0-2.33-.616,23.639,23.639,0,0,0-2.465-.135h-4.287Z" transform="translate(-814.312 -83.939)" fill="#0000b2"/><path d="M1223.474,119.775H1212.65v-7.4h30.007v7.4h-10.824v30.549h-8.359Z" transform="translate(-909.506 -83.94)" fill="#0000b2"/><path d="M1341.313,128.438a21.421,21.421,0,0,1,1.53-8.259,18.079,18.079,0,0,1,4.254-6.3,18.81,18.81,0,0,1,6.482-3.992,24.848,24.848,0,0,1,16.4,0,18.815,18.815,0,0,1,6.489,3.989,18.12,18.12,0,0,1,4.255,6.3,23.1,23.1,0,0,1,0,16.517,18.1,18.1,0,0,1-4.255,6.3,18.743,18.743,0,0,1-6.484,3.992,24.809,24.809,0,0,1-16.4,0,18.743,18.743,0,0,1-6.482-3.992,18.065,18.065,0,0,1-4.254-6.3A21.4,21.4,0,0,1,1341.313,128.438Zm8.682,0a13.866,13.866,0,0,0,.831,4.9,11.159,11.159,0,0,0,2.385,3.859,10.828,10.828,0,0,0,3.724,2.545,13.359,13.359,0,0,0,9.7,0,10.875,10.875,0,0,0,3.724-2.545,11.236,11.236,0,0,0,2.385-3.859,14.839,14.839,0,0,0,0-9.778,11.185,11.185,0,0,0-2.385-3.884,10.91,10.91,0,0,0-3.724-2.545,13.359,13.359,0,0,0-9.7,0,10.861,10.861,0,0,0-3.724,2.545,11.106,11.106,0,0,0-2.385,3.884,13.937,13.937,0,0,0-.833,4.875Z" transform="translate(-1005.969 -81.031)" fill="#0000b2"/><path d="M1537.925,118.8a5.972,5.972,0,0,0-2.753-1.9,9.9,9.9,0,0,0-3.3-.616,8.8,8.8,0,0,0-1.874.213,7.3,7.3,0,0,0-1.823.671,3.985,3.985,0,0,0-1.394,1.206,3.063,3.063,0,0,0-.535,1.822,3.018,3.018,0,0,0,1.286,2.625,12.1,12.1,0,0,0,3.254,1.554q1.952.641,4.2,1.284a17.4,17.4,0,0,1,4.207,1.824,9.944,9.944,0,0,1,3.254,3.161,9.607,9.607,0,0,1,1.286,5.3,12.191,12.191,0,0,1-1.178,5.521,11.178,11.178,0,0,1-3.189,3.909,13.476,13.476,0,0,1-4.659,2.3,21.362,21.362,0,0,1-12.458-.375,17.173,17.173,0,0,1-5.9-3.641l5.916-6.539a8.668,8.668,0,0,0,3.254,2.653,9.258,9.258,0,0,0,4.047.938,9.038,9.038,0,0,0,2.062-.25,6.7,6.7,0,0,0,1.877-.721,4.072,4.072,0,0,0,1.338-1.234,3.084,3.084,0,0,0,.5-1.769,3.218,3.218,0,0,0-1.311-2.705,12.156,12.156,0,0,0-3.3-1.687q-1.982-.7-4.287-1.394a19.153,19.153,0,0,1-4.286-1.874,10.34,10.34,0,0,1-3.3-3.108,8.873,8.873,0,0,1-1.311-5.09,11.365,11.365,0,0,1,1.206-5.358,11.639,11.639,0,0,1,3.211-3.836,13.936,13.936,0,0,1,4.635-2.332,18.962,18.962,0,0,1,5.413-.776,21.244,21.244,0,0,1,6.215.911,14.313,14.313,0,0,1,5.413,3.053Z" transform="translate(-1137.209 -81.091)" fill="#0000b2"/><path d="M1650.479,112.379h14.093a27.961,27.961,0,0,1,5.573.536,12.681,12.681,0,0,1,4.583,1.849,9.384,9.384,0,0,1,3.108,3.526,12.153,12.153,0,0,1,1.152,5.6,12.927,12.927,0,0,1-1.071,5.573,9.166,9.166,0,0,1-2.948,3.594,11.953,11.953,0,0,1-4.448,1.9,26.215,26.215,0,0,1-5.573.561h-6.106v14.805h-8.362Zm8.362,16.074h5.571a10.778,10.778,0,0,0,2.17-.213,5.748,5.748,0,0,0,1.877-.726,3.867,3.867,0,0,0,1.339-1.391,4.428,4.428,0,0,0,.5-2.225,3.75,3.75,0,0,0-.668-2.33,4.449,4.449,0,0,0-1.715-1.366,7.266,7.266,0,0,0-2.332-.616,23.576,23.576,0,0,0-2.465-.135h-4.285Z" transform="translate(-1237.764 -83.939)" fill="#0000b2"/><path d="M1785.339,112.38h8.36v14.145h16.234V112.38h8.349v37.945h-8.359v-16.4h-16.235v16.4h-8.358Z" transform="translate(-1338.867 -83.94)" fill="#0000b2"/><path d="M1944.44,112.38h8.362v37.945h-8.362Z" transform="translate(-1458.157 -83.94)" fill="#0000b2"/><path d="M2008.25,112.379h14.681a25.912,25.912,0,0,1,5.506.563,13.1,13.1,0,0,1,4.554,1.874,9.354,9.354,0,0,1,3.105,3.536,11.961,11.961,0,0,1,1.154,5.546,11.129,11.129,0,0,1-2.089,6.832,9.484,9.484,0,0,1-6.122,3.576l9.646,16.017h-10.01l-7.931-15.163h-4.125v15.163h-8.358Zm8.36,15.7h4.927c.751,0,1.547-.025,2.385-.08a7.375,7.375,0,0,0,2.278-.483,3.947,3.947,0,0,0,1.689-1.251,3.836,3.836,0,0,0,.668-2.41,4.02,4.02,0,0,0-.588-2.3,3.94,3.94,0,0,0-1.5-1.311,6.57,6.57,0,0,0-2.09-.616,16.987,16.987,0,0,0-2.3-.163h-5.462Z" transform="translate(-1505.998 -83.939)" fill="#0000b2"/><path d="M2157.747,112.38h6.912l16.5,37.945h-9.431l-3.269-8.038h-14.735l-3.161,8.038h-9.216Zm3.216,11.037-4.61,11.79h9.26Z" transform="translate(-1605.788 -83.94)" fill="#0000b2"/></g></svg>